# xmcd CD database file
#
# Track frame offsets:
#	150
#	16145
#	31310
#	45690
#	61437
#	82532
#	99062
#	115085
#	133115
#	152000
#	168530
#	187775
#
# Disc length: 2753 seconds
#
# Revision: 4
# Processed by: cddbd v1.5.1PL0 Copyright (c) Steve Scherf et al.
# Submitted via: CDex 1.51
#
DISCID=820abf0c
DTITLE=Reba McEntire - So Good Together
DYEAR=1999
DGENRE=Country
TTITLE0=We're So Good Together
TTITLE1='Til I Said It To you
TTITLE2=I Like It That Way
TTITLE3=What Do You Say
TTITLE4=Roses
TTITLE5=I'm Not Your Girl
TTITLE6=She Wasn't Good Enough For Him
TTITLE7=Nobody Dies From A Broken Heart
TTITLE8=Back Before The War
TTITLE9=When You're Not Trying To
TTITLE10=Where You End And I begin
TTITLE11=We're All Alone
EXTD=CD\\MCA\\170118-2 YEAR: 1999
EXTT0=
EXTT1=
EXTT2=
EXTT3=
EXTT4=
EXTT5=
EXTT6=
EXTT7=
EXTT8=
EXTT9=
EXTT10=
EXTT11=
PLAYORDER=
